<?xml version="1.0" standalone="no"?>
<svg xmlns:xlink="http://www.w3.org/1999/xlink" id="wave" style="transform:rotate(0deg); transition: 0.3s" viewBox="0 0 1440 250" version="1.1" xmlns="http://www.w3.org/2000/svg"><defs><linearGradient id="sw-gradient-0" x1="0" x2="0" y1="1" y2="0"><stop stop-color="rgba(242, 170, 76, 1)" offset="0%"/><stop stop-color="rgba(242, 170, 76, 1)" offset="100%"/></linearGradient></defs><path style="transform:translate(0, 0px); opacity:1" fill="url(#sw-gradient-0)" d="M0,225L48,204.2C96,183,192,142,288,141.7C384,142,480,183,576,187.5C672,192,768,158,864,129.2C960,100,1056,75,1152,87.5C1248,100,1344,150,1440,166.7C1536,183,1632,167,1728,145.8C1824,125,1920,100,2016,87.5C2112,75,2208,75,2304,75C2400,75,2496,75,2592,75C2688,75,2784,75,2880,83.3C2976,92,3072,108,3168,95.8C3264,83,3360,42,3456,54.2C3552,67,3648,133,3744,137.5C3840,142,3936,83,4032,75C4128,67,4224,108,4320,137.5C4416,167,4512,183,4608,158.3C4704,133,4800,67,4896,54.2C4992,42,5088,83,5184,83.3C5280,83,5376,42,5472,20.8C5568,0,5664,0,5760,12.5C5856,25,5952,50,6048,75C6144,100,6240,125,6336,120.8C6432,117,6528,83,6624,83.3C6720,83,6816,117,6864,133.3L6912,150L6912,250L6864,250C6816,250,6720,250,6624,250C6528,250,6432,250,6336,250C6240,250,6144,250,6048,250C5952,250,5856,250,5760,250C5664,250,5568,250,5472,250C5376,250,5280,250,5184,250C5088,250,4992,250,4896,250C4800,250,4704,250,4608,250C4512,250,4416,250,4320,250C4224,250,4128,250,4032,250C3936,250,3840,250,3744,250C3648,250,3552,250,3456,250C3360,250,3264,250,3168,250C3072,250,2976,250,2880,250C2784,250,2688,250,2592,250C2496,250,2400,250,2304,250C2208,250,2112,250,2016,250C1920,250,1824,250,1728,250C1632,250,1536,250,1440,250C1344,250,1248,250,1152,250C1056,250,960,250,864,250C768,250,672,250,576,250C480,250,384,250,288,250C192,250,96,250,48,250L0,250Z"/></svg>